<svg width="30" height="29" viewBox="0 0 30 29" fill="none" xmlns="http://www.w3.org/2000/svg">
<path d="M27.4805 0H2.51953C1.81641 0 1.2207 0.357697 0.732422 1.07309C0.244141 1.78849 0 2.61394 0 3.54946V24.6811C0 25.6166 0.244141 26.4421 0.732422 27.1575C1.2207 27.8729 1.81641 28.2306 2.51953 28.2306H27.4805C28.1836 28.2306 28.7793 27.8729 29.2676 27.1575C29.7559 26.4421 30 25.6166 30 24.6811V3.54946C30 2.61394 29.7559 1.78849 29.2676 1.07309C28.7793 0.357697 28.1836 0 27.4805 0ZM25.1367 3.54946L15 11.9691L4.86328 3.54946H25.1367ZM2.51953 24.6811V5.69564L14.3555 15.6836C14.4336 15.7937 14.6484 15.8487 15 15.8487C15.3516 15.8487 15.5664 15.7937 15.6445 15.6836L27.4805 5.69564V24.6811H2.51953Z" fill="#D7BBC3"/>
</svg>
