<svg width="37" height="36" viewBox="0 0 37 36" fill="none" xmlns="http://www.w3.org/2000/svg">
<path d="M17.8607 7.42763C20.6854 7.42763 23.3471 8.69016 25.2977 10.6638V10.6696C25.2977 9.72187 25.9301 9.00492 26.8043 9.00492H27.0263C28.4057 9.00492 28.682 10.3164 28.682 10.7303L28.6878 25.4598C28.5918 26.425 29.6764 26.924 30.2788 26.3038C32.6202 23.8755 35.4264 13.8079 28.8208 7.97904C22.6603 2.53839 14.3919 3.43719 9.99586 6.49152C5.32346 9.74635 2.33686 16.9357 5.23789 23.6925C8.40602 31.059 17.4629 33.2565 22.8534 31.0648C25.5821 29.9538 26.8401 33.668 24.0038 34.8839C19.7292 36.7223 7.81633 36.5346 2.25246 26.8202C-1.50651 20.2581 -1.30764 8.71464 8.66617 2.73423C16.2893 -1.84375 26.3475 -0.575389 32.4109 5.80721C38.7472 12.4859 38.3806 24.9818 32.1947 29.8396C29.3931 32.0487 25.2329 29.9002 25.263 26.6815L25.2318 25.6323C23.2812 27.5803 20.6854 28.7228 17.8607 28.7228C12.2725 28.7228 7.35267 23.7613 7.35267 18.1329C7.35267 12.4439 12.2725 7.42996 17.8607 7.42996V7.42763ZM24.8895 17.7261C24.6779 13.6027 21.6428 11.1196 17.9751 11.1196H17.8364C13.6091 11.1196 11.2608 14.477 11.2608 18.2833C11.2608 22.5512 14.0971 25.2464 17.819 25.2464C21.9735 25.2464 24.701 22.1816 24.8999 18.5561L24.8895 17.7261Z" fill="black"/>
</svg>
