<svg width="70" height="100" viewBox="0 0 70 100" fill="none" xmlns="http://www.w3.org/2000/svg">
<g clip-path="url(#clip0_104_137)">
<path d="M17.3753 100C26.9632 100 34.7447 92.5334 34.7447 83.3334V66.6667H17.3753C7.78735 66.6667 0.00585938 74.1334 0.00585938 83.3334C0.00585938 92.5334 7.78735 100 17.3753 100Z" fill="#0ACF83"/>
<path d="M0.00585938 49.9999C0.00585938 40.7999 7.78735 33.3333 17.3753 33.3333H34.7447V66.6666H17.3753C7.78735 66.6666 0.00585938 59.1999 0.00585938 49.9999Z" fill="#A259FF"/>
<path d="M0.00390625 16.6667C0.00390625 7.46667 7.7854 0 17.3733 0H34.7427V33.3333H17.3733C7.7854 33.3333 0.00390625 25.8667 0.00390625 16.6667Z" fill="#F24E1E"/>
<path d="M34.7456 0H52.115C61.7029 0 69.4844 7.46667 69.4844 16.6667C69.4844 25.8667 61.7029 33.3333 52.115 33.3333H34.7456V0Z" fill="#FF7262"/>
<path d="M69.4844 49.9999C69.4844 59.1999 61.7029 66.6666 52.115 66.6666C42.5271 66.6666 34.7456 59.1999 34.7456 49.9999C34.7456 40.7999 42.5271 33.3333 52.115 33.3333C61.7029 33.3333 69.4844 40.7999 69.4844 49.9999Z" fill="#1ABCFE"/>
</g>
<defs>
<clipPath id="clip0_104_137">
<rect width="69.4915" height="100" fill="white"/>
</clipPath>
</defs>
</svg>
