<svg width="35" height="35" viewBox="0 0 35 35" fill="none" xmlns="http://www.w3.org/2000/svg">
<path d="M17.4844 1.47479e-06C7.82422 -0.00393694 0 7.88078 0 17.6126C0 25.3083 4.89453 31.85 11.7109 34.2524C12.6289 34.4848 12.4883 33.8271 12.4883 33.3781V30.3258C7.1875 30.952 6.97266 27.4153 6.61719 26.8246C5.89844 25.5879 4.19922 25.2728 4.70703 24.6821C5.91406 24.0559 7.14453 24.8396 8.57031 26.9624C9.60156 28.5023 11.6133 28.2424 12.6328 27.9864C12.8555 27.0609 13.332 26.2338 13.9883 25.5918C8.49609 24.5994 6.20703 21.2202 6.20703 17.203C6.20703 15.2535 6.84375 13.4615 8.09375 12.0161C7.29688 9.63337 8.16797 7.59327 8.28516 7.29001C10.5547 7.08522 12.9141 8.9284 13.0977 9.07412C14.3867 8.7236 15.8594 8.53849 17.5078 8.53849C19.1641 8.53849 20.6406 8.73148 21.9414 9.08593C22.3828 8.74723 24.5703 7.16399 26.6797 7.35697C26.793 7.66023 27.6445 9.65307 26.8945 12.0043C28.1602 13.4536 28.8047 15.2614 28.8047 17.2148C28.8047 21.2399 26.5 24.623 20.9922 25.5997C21.4639 26.0675 21.8385 26.6253 22.0941 27.2407C22.3496 27.856 22.481 28.5166 22.4805 29.1837V33.6144C22.5117 33.9689 22.4805 34.3194 23.0664 34.3194C29.9844 31.9681 34.9648 25.3792 34.9648 17.6165C34.9648 7.88078 27.1367 1.47479e-06 17.4844 1.47479e-06Z" fill="black"/>
</svg>
