<svg width="30" height="31" viewBox="0 0 30 31" fill="none" xmlns="http://www.w3.org/2000/svg">
<path d="M15 0C10.9223 0 10.4141 0.0198521 8.81829 0.0879164C7.2159 0.167325 6.13202 0.417839 5.17565 0.792193C4.17471 1.17318 3.26822 1.76969 2.51938 2.54012C1.7531 3.29337 1.16114 4.20782 0.785723 5.21827C0.414427 6.18251 0.165958 7.27532 0.0871984 8.8909C0.0150019 10.5008 0 11.0122 0 15.1235C0 19.2348 0.01969 19.7472 0.0871984 21.3561C0.165958 22.967 0.414427 24.0645 0.785723 25.0288C1.1636 26.038 1.75523 26.9519 2.51938 27.7069C3.26647 28.4795 4.17346 29.0763 5.17565 29.4548C6.13202 29.8245 7.22059 30.0797 8.81829 30.1591C10.4151 30.2319 10.9223 30.247 15 30.247C19.0777 30.247 19.5859 30.2272 21.1817 30.1591C22.7794 30.0797 23.868 29.8235 24.8244 29.4548C25.8253 29.0739 26.7318 28.4773 27.4806 27.7069C28.2479 26.9545 28.84 26.0398 29.2143 25.0288C29.5809 24.0645 29.834 22.967 29.9128 21.3561C29.985 19.7462 30 19.2348 30 15.1235C30 11.0122 29.9803 10.4999 29.9128 8.8909C29.834 7.28005 29.5799 6.17684 29.2143 5.21827C28.8364 4.20908 28.2448 3.29513 27.4806 2.54012C26.7343 1.76654 25.8271 1.16955 24.8244 0.792193C23.868 0.417839 22.7794 0.167325 21.1817 0.0879164C19.5849 0.0151254 19.0777 0 15 0ZM15 2.72257C19.0046 2.72257 19.4827 2.74243 21.0654 2.81049C22.5253 2.8795 23.3204 3.12529 23.8483 3.33326C24.5009 3.57614 25.0916 3.96271 25.5773 4.46483C26.0744 4.95246 26.4564 5.54663 26.6949 6.20331C26.9012 6.73553 27.145 7.53718 27.2134 9.00907C27.2809 10.6048 27.3006 11.0879 27.3006 15.1245C27.3006 19.1611 27.2809 19.6441 27.2078 21.2399C27.129 22.7117 26.8852 23.5134 26.6799 24.0456C26.3958 24.7556 26.0789 25.2519 25.5557 25.7888C25.0684 26.2878 24.4781 26.6725 23.8267 26.9157C23.3054 27.1236 22.4991 27.3694 21.0336 27.4384C19.4424 27.5065 18.9736 27.5264 14.9587 27.5264C10.9439 27.5264 10.476 27.5065 8.88299 27.4328C7.42312 27.3534 6.6177 27.1076 6.08982 26.9005C5.37724 26.6141 4.88874 26.2946 4.36555 25.7671C3.83767 25.2349 3.502 24.7282 3.24322 24.0239C3.03319 23.4983 2.79316 22.6853 2.71534 21.2077C2.6619 19.6224 2.63658 19.1308 2.63658 15.1018C2.63658 11.0746 2.6619 10.5821 2.71534 8.97693C2.79316 7.49937 3.03319 6.68827 3.24322 6.16077C3.502 5.44137 3.83861 4.94979 4.36555 4.41756C4.8878 3.89101 5.37724 3.55069 6.08982 3.2841C6.6177 3.07708 7.40343 2.83129 8.86892 2.75755C10.4601 2.69989 10.9289 2.67909 14.9381 2.67909L15 2.72257ZM15 7.36135C13.9886 7.36097 12.9871 7.56154 12.0527 7.95159C11.1182 8.34164 10.2691 8.91352 9.55399 9.63456C8.83885 10.3556 8.27164 11.2116 7.88477 12.1538C7.49791 13.0959 7.29898 14.1057 7.29935 15.1254C7.29898 16.1451 7.49791 17.1549 7.88477 18.097C8.27164 19.0392 8.83885 19.8952 9.55399 20.6163C10.2691 21.3373 11.1182 21.9092 12.0527 22.2992C12.9871 22.6893 13.9886 22.8898 15 22.8895C16.0114 22.8898 17.0129 22.6893 17.9473 22.2992C18.8818 21.9092 19.7309 21.3373 20.446 20.6163C21.1612 19.8952 21.7284 19.0392 22.1152 18.097C22.5021 17.1549 22.701 16.1451 22.7006 15.1254C22.701 14.1057 22.5021 13.0959 22.1152 12.1538C21.7284 11.2116 21.1612 10.3556 20.446 9.63456C19.7309 8.91352 18.8818 8.34164 17.9473 7.95159C17.0129 7.56154 16.0114 7.36097 15 7.36135V7.36135ZM15 20.1669C12.2359 20.1669 9.99969 17.9123 9.99969 15.1254C9.99969 12.3386 12.2359 10.0839 15 10.0839C17.7641 10.0839 20.0003 12.3386 20.0003 15.1254C20.0003 17.9123 17.7641 20.1669 15 20.1669ZM24.8112 7.05128C24.8107 7.53308 24.6205 7.99498 24.2825 8.33549C23.9444 8.676 23.4861 8.86727 23.0082 8.86727C22.7719 8.86727 22.5379 8.82035 22.3196 8.72918C22.1013 8.63801 21.903 8.50439 21.7359 8.33593C21.5688 8.16748 21.4363 7.96749 21.3459 7.74739C21.2554 7.5273 21.2089 7.2914 21.2089 7.05317C21.2089 6.81493 21.2554 6.57904 21.3459 6.35894C21.4363 6.13884 21.5688 5.93886 21.7359 5.7704C21.903 5.60195 22.1013 5.46832 22.3196 5.37715C22.5379 5.28599 22.7719 5.23906 23.0082 5.23906C23.9993 5.23906 24.8112 6.05205 24.8112 7.05128V7.05128Z" fill="#E5CFCF" fill-opacity="0.9"/>
</svg>
