<svg width="30" height="31" viewBox="0 0 30 31" fill="none" xmlns="http://www.w3.org/2000/svg">
<path d="M27.5887 0H2.41125C1.08 0 0 1.08889 0 2.43111V27.8159C0 29.1581 1.08 30.247 2.41125 30.247H27.5887C28.92 30.247 30 29.1581 30 27.8159V2.43111C30 1.08889 28.92 0 27.5887 0ZM27.5887 27.8273C10.7963 27.8235 2.4 27.8197 2.4 27.8159C2.40375 10.8852 2.4075 2.41976 2.41125 2.41976C19.2037 2.42354 27.6 2.42732 27.6 2.43111C27.5962 19.3619 27.5925 27.8273 27.5887 27.8273ZM4.4475 11.3389H8.89875V25.7743H4.4475V11.3389ZM6.675 9.36524C8.09625 9.36524 9.255 8.20073 9.255 6.76399C9.255 6.42239 9.18827 6.08414 9.05861 5.76854C8.92895 5.45294 8.73891 5.16618 8.49934 4.92464C8.25976 4.68309 7.97534 4.49148 7.66232 4.36076C7.3493 4.23003 7.01381 4.16275 6.675 4.16275C6.33619 4.16275 6.0007 4.23003 5.68768 4.36076C5.37466 4.49148 5.09024 4.68309 4.85066 4.92464C4.61109 5.16618 4.42105 5.45294 4.29139 5.76854C4.16173 6.08414 4.095 6.42239 4.095 6.76399C4.09125 8.20073 5.24625 9.36524 6.675 9.36524ZM16.1362 18.6322C16.1362 16.7493 16.4925 14.9269 18.8063 14.9269C21.0863 14.9269 21.12 17.0782 21.12 18.7532V25.7743H25.5675V17.8571C25.5675 13.9703 24.735 10.9797 20.2313 10.9797C18.0675 10.9797 16.6163 12.1782 16.02 13.3125H15.96V11.3389H11.6888V25.7743H16.1362V18.6322Z" fill="#E5CFCF" fill-opacity="0.9"/>
</svg>
