<svg width="39" height="39" viewBox="0 0 39 39" fill="none" xmlns="http://www.w3.org/2000/svg">
<path d="M19.2 0C8.596 0 0 8.66683 0 19.3582C0 30.0496 8.596 38.7164 19.2 38.7164C29.804 38.7164 38.4 30.0496 38.4 19.3582C38.4 8.66683 29.804 0 19.2 0ZM14.5 27.3818H10.612V14.7667H14.5V27.3818ZM12.532 13.218C11.304 13.218 10.51 12.3408 10.51 11.256C10.51 10.1489 11.328 9.29798 12.582 9.29798C13.836 9.29798 14.604 10.1489 14.628 11.256C14.628 12.3408 13.836 13.218 12.532 13.218ZM28.7 27.3818H24.812V20.3906C24.812 18.7633 24.248 17.6583 22.842 17.6583C21.768 17.6583 21.13 18.4064 20.848 19.1263C20.744 19.3824 20.718 19.7454 20.718 20.1063V27.3797H16.828V18.7896C16.828 17.2147 16.778 15.8979 16.726 14.7647H20.104L20.282 16.517H20.36C20.872 15.6943 22.126 14.4803 24.224 14.4803C26.782 14.4803 28.7 16.2085 28.7 19.9228V27.3818Z" fill="black"/>
</svg>
